<mxfile host="app.diagrams.net" modified="2024-03-13T10:21:34.376Z" agent="Mozilla/5.0 (Windows NT 10.0; Win64; x64) AppleWebKit/537.36 (KHTML, like Gecko) Chrome/122.0.0.0 Safari/537.36" version="24.0.2" etag="hGlkGXuJMwvHIrOWsq5T" type="github">
  <diagram name="Page-1" id="QEAyiGGcLlQ0WXlOunC4">
    <mxGraphModel>
      <root>
        <mxCell id="0" />
        <mxCell id="1" parent="0" />
      </root>
    </mxGraphModel>
  </diagram>
</mxfile>
